<?xml version="1.0" encoding="UTF-8" standalone="no"?>
<!-- Created with Inkscape (http://www.inkscape.org/) -->

<!-- ClipArt by Arvin61r58 (http://openclipart.org/user-detail/Arvin61r58) -->

<svg
   xmlns:dc="http://purl.org/dc/elements/1.1/"
   xmlns:cc="http://creativecommons.org/ns#"
   xmlns:rdf="http://www.w3.org/1999/02/22-rdf-syntax-ns#"
   xmlns:svg="http://www.w3.org/2000/svg"
   xmlns="http://www.w3.org/2000/svg"
   xmlns:xlink="http://www.w3.org/1999/xlink"
   xmlns:sodipodi="http://sodipodi.sourceforge.net/DTD/sodipodi-0.dtd"
   xmlns:inkscape="http://www.inkscape.org/namespaces/inkscape"
   version="1.1"
   id="svg2"
   viewBox="0 0 758.46051 589.92238"
   height="589.92236"
   width="758.46051"
   sodipodi:docname="Cartoon-Crab-remix2.svg"
   inkscape:version="0.92.1 r15371">
  <sodipodi:namedview
     pagecolor="#ffffff"
     bordercolor="#666666"
     borderopacity="1"
     objecttolerance="10"
     gridtolerance="10"
     guidetolerance="10"
     inkscape:pageopacity="0"
     inkscape:pageshadow="2"
     inkscape:window-width="1366"
     inkscape:window-height="705"
     id="namedview6426"
     showgrid="false"
     fit-margin-top="0"
     fit-margin-left="0"
     fit-margin-right="0"
     fit-margin-bottom="0"
     inkscape:zoom="0.43197922"
     inkscape:cx="362.49897"
     inkscape:cy="308.65199"
     inkscape:window-x="-8"
     inkscape:window-y="-8"
     inkscape:window-maximized="1"
     inkscape:current-layer="g8121" />
  <title
     id="title8182">Cartoon Crab</title>
  <defs
     id="defs4">
    <radialGradient
       gradientTransform="matrix(-1.1301632,0.7847114,-0.72952381,-0.89380841,829.08183,911.05241)"
       gradientUnits="userSpaceOnUse"
       xlink:href="#linearGradient3813"
       id="radialGradient4522"
       fy="636.36267"
       fx="77.973862"
       r="17.822334"
       cy="636.36267"
       cx="77.973862" />
    <linearGradient
       id="linearGradient3813">
      <stop
         offset="0"
         style="stop-color:#000000;stop-opacity:1"
         id="stop3815" />
      <stop
         id="stop5991"
         style="stop-color:#000000;stop-opacity:1"
         offset="0.125" />
      <stop
         id="stop5989"
         style="stop-color:#3f3f3f;stop-opacity:1"
         offset="0.25" />
      <stop
         id="stop5987"
         style="stop-color:#7f7f7f;stop-opacity:1;"
         offset="0.5" />
      <stop
         offset="1"
         style="stop-color:#ffffff;stop-opacity:1"
         id="stop3817" />
    </linearGradient>
    <radialGradient
       r="17.822334"
       fy="636.36267"
       fx="77.973862"
       cy="636.36267"
       cx="77.973862"
       gradientTransform="matrix(-1.3060496,0.90766811,-0.84305897,-1.0338595,1063.9119,998.47134)"
       gradientUnits="userSpaceOnUse"
       id="radialGradient7570"
       xlink:href="#linearGradient3813" />
    <linearGradient
       id="linearGradient7772">
      <stop
         stop-color="#f3ed5b"
         offset="0"
         id="stop7774" />
      <stop
         stop-color="#efea72"
         offset="0.071429"
         id="stop7776" />
      <stop
         stop-color="#fdf867"
         offset="0.142857"
         id="stop7778" />
      <stop
         stop-color="#feef4d"
         offset="0.214286"
         id="stop7780" />
      <stop
         stop-color="#f9de48"
         offset="0.285714"
         id="stop7782" />
      <stop
         stop-color="#f5cd44"
         offset="0.357143"
         id="stop7784" />
      <stop
         stop-color="#f8cf42"
         offset="0.428571"
         id="stop7786" />
      <stop
         stop-color="#fbd43e"
         offset="0.5"
         id="stop7788" />
      <stop
         stop-color="#f9d639"
         offset="0.571429"
         id="stop7790" />
      <stop
         stop-color="#f4d438"
         offset="0.642857"
         id="stop7792" />
      <stop
         stop-color="#eecc36"
         offset="0.714286"
         id="stop7794" />
      <stop
         stop-color="#e4bc35"
         offset="0.785714"
         id="stop7796" />
      <stop
         stop-color="#dab331"
         offset="0.857143"
         id="stop7798" />
      <stop
         stop-color="#d9bb2f"
         offset="0.928571"
         id="stop7800" />
      <stop
         stop-color="#d8c32f"
         offset="1"
         id="stop7802" />
    </linearGradient>
    <linearGradient
       gradientUnits="userSpaceOnUse"
       y2="-81.432816"
       x2="494.77271"
       y1="-81.432816"
       x1="208.89012"
       id="linearGradient7830"
       xlink:href="#linearGradient7772" />
    <linearGradient
       gradientUnits="userSpaceOnUse"
       y2="-144.07341"
       x2="519.82904"
       y1="-144.07341"
       x1="192.18588"
       id="linearGradient7843"
       xlink:href="#linearGradient7772" />
    <linearGradient
       y2="-144.07341"
       x2="519.82904"
       y1="-144.07341"
       x1="192.18588"
       gradientUnits="userSpaceOnUse"
       id="linearGradient7852"
       xlink:href="#linearGradient7772" />
    <linearGradient
       y2="-144.07341"
       x2="519.82904"
       y1="-144.07341"
       x1="192.18588"
       gradientUnits="userSpaceOnUse"
       id="linearGradient7854"
       xlink:href="#linearGradient7772" />
    <linearGradient
       y2="-144.07341"
       x2="519.82904"
       y1="-144.07341"
       x1="192.18588"
       gradientUnits="userSpaceOnUse"
       id="linearGradient7856"
       xlink:href="#linearGradient7772" />
    <filter
       height="1.1"
       y="-0.050000001"
       width="1.1"
       x="-0.050000001"
       id="filter7886"
       style="color-interpolation-filters:sRGB">
      <feGaussianBlur
         id="feGaussianBlur7888"
         result="result0"
         in="SourceGraphic"
         stdDeviation="6" />
      <feDiffuseLighting
         id="feDiffuseLighting7890"
         result="result5"
         surfaceScale="4"
         diffuseConstant="1"
         lighting-color="#ffffff">
        <feDistantLight
           id="feDistantLight7892"
           azimuth="235"
           elevation="45" />
      </feDiffuseLighting>
      <feComposite
         k4="0"
         k3="0"
         k2="0"
         id="feComposite7894"
         operator="arithmetic"
         result="fbSourceGraphic"
         in="result5"
         in2="SourceGraphic"
         k1="1.4" />
      <feGaussianBlur
         id="feGaussianBlur7896"
         stdDeviation="6"
         in="fbSourceGraphic"
         result="result0" />
      <feSpecularLighting
         id="feSpecularLighting7898"
         in="result0"
         result="result1"
         lighting-color="#a02525"
         surfaceScale="4"
         specularConstant="1"
         specularExponent="25">
        <feDistantLight
           id="feDistantLight7900"
           elevation="45"
           azimuth="235" />
      </feSpecularLighting>
      <feComposite
         k4="0"
         k1="0"
         id="feComposite7902"
         result="result4"
         in2="result1"
         in="fbSourceGraphic"
         operator="arithmetic"
         k2="1"
         k3="1" />
      <feComposite
         id="feComposite7904"
         in="result4"
         in2="SourceGraphic"
         result="result2"
         operator="in" />
    </filter>
    <radialGradient
       inkscape:collect="always"
       xlink:href="#linearGradient3813"
       id="radialGradient7028"
       gradientUnits="userSpaceOnUse"
       gradientTransform="matrix(-1.1301632,0.7847114,-0.72952381,-0.89380841,829.08183,911.05241)"
       cx="77.973862"
       cy="636.36267"
       fx="77.973862"
       fy="636.36267"
       r="17.822334" />
  </defs>
  <metadata
     id="metadata7">
    <rdf:RDF>
      <cc:Work
         rdf:about="">
        <dc:format>image/svg+xml</dc:format>
        <dc:type
           rdf:resource="http://purl.org/dc/dcmitype/StillImage" />
        <dc:title>Cartoon Crab</dc:title>
        <dc:description>King Crab cartoon figure</dc:description>
        <dc:subject>
          <rdf:Bag>
            <rdf:li>marine life</rdf:li>
            <rdf:li>crab</rdf:li>
            <rdf:li>cartoon</rdf:li>
            <rdf:li>king</rdf:li>
          </rdf:Bag>
        </dc:subject>
        <dc:creator>
          <cc:Agent>
            <dc:title>Arvin61r58</dc:title>
          </cc:Agent>
        </dc:creator>
        <dc:publisher>
          <cc:Agent>
            <dc:title>Openclipart.org</dc:title>
          </cc:Agent>
        </dc:publisher>
        <dc:identifier>https://openclipart.org/</dc:identifier>
        <dc:source>https://openclipart.org/user-detail/Arvin61r58</dc:source>
        <cc:license
           rdf:resource="http://creativecommons.org/publicdomain/zero/1.0/" />
      </cc:Work>
      <cc:License
         rdf:about="http://creativecommons.org/publicdomain/zero/1.0/">
        <cc:permits
           rdf:resource="http://creativecommons.org/ns#Reproduction" />
        <cc:permits
           rdf:resource="http://creativecommons.org/ns#Distribution" />
        <cc:permits
           rdf:resource="http://creativecommons.org/ns#DerivativeWorks" />
      </cc:License>
    </rdf:RDF>
  </metadata>
  <g
     transform="translate(-9.5482785,-238.68864)"
     id="layer1">
    <g
       id="g8121">
      <g
         id="g7733"
         transform="matrix(1.0986818,0,0,1.0996933,14.60353,-31.939964)" />
      <g
         id="g7026">
        <g
           transform="matrix(0.91556816,0,0,0.91641111,57.798311,37.099278)"
           style="filter:url(#filter7886)"
           id="g7971">
          <g
             id="g7943">
            <g
               id="g7939">
              <path
                 style="opacity:1;fill:#a20000;fill-opacity:1;fill-rule:evenodd;stroke:#000000;stroke-width:4;stroke-linecap:butt;stroke-linejoin:round;stroke-miterlimit:4;stroke-dasharray:none;stroke-opacity:1"
                 d="m 125.19709,603.68583 c 5.67554,14.80787 -29.949453,-0.37391 -62.791834,12.21383 -8.210597,3.14694 -16.41506,5.19032 -23.816859,7.4613 -8.110179,2.4883 -10.842726,2.3029 -17.055989,8.89092 -5.744227,6.09069 -2.608477,11.46413 -14.3012398,16.99172 -4.178121,1.97514 -0.679865,-22.94574 8.2217598,-31.92234 8.901632,-8.97657 22.617991,-17.67564 39.039176,-23.96951 32.842368,-12.58774 65.029456,-4.47381 70.704986,10.33408 z"
                 id="path7577"
                 inkscape:connector-curvature="0" />
              <path
                 style="opacity:1;fill:#a20000;fill-opacity:1;fill-rule:evenodd;stroke:#000000;stroke-width:4;stroke-linecap:butt;stroke-linejoin:round;stroke-miterlimit:4;stroke-dasharray:none;stroke-opacity:1"
                 d="m 132.76006,616.25303 a 18.952602,22.968224 84.15026 0 1 -24.78027,-16.51298 18.952602,22.968224 84.15026 0 1 20.91697,-21.19484"
                 id="path7580"
                 inkscape:connector-curvature="0" />
            </g>
            <g
               id="g7630"
               transform="matrix(0.71122906,-0.46983161,0.39061827,0.85545894,-169.25131,200.74835)">
              <path
                 id="path7632"
                 d="m 35.496344,636.52539 c 1.5e-5,15.85827 -27.8318943,-11.06777 -63.003946,-11.06777 -8.793014,0 -17.185351,-1.02826 -24.909641,-1.55674 -8.46353,-0.57907 -10.94873,-1.73014 -19.10824,2.19785 -7.54355,3.63146 -6.5386,9.77123 -19.43515,10.74797 -4.60826,0.349 7.57723,-21.66922 19.10188,-26.86543 11.52465,-5.19619 27.4458,-8.41011 45.03182,-8.41011 35.1720377,0 62.323271,19.09594 62.323277,34.95423 z"
                 style="opacity:1;fill:#a20000;fill-opacity:1;fill-rule:evenodd;stroke:#000000;stroke-width:4.49480152;stroke-linecap:butt;stroke-linejoin:round;stroke-miterlimit:4;stroke-dasharray:none;stroke-opacity:1"
                 inkscape:connector-curvature="0" />
              <path
                 id="path7634"
                 d="M 43.848422,649.53467 A 22.968224,18.952602 0 0 1 20.880196,630.58206 22.968224,18.952602 0 0 1 43.848422,611.62946"
                 style="opacity:1;fill:#a20000;fill-opacity:1;fill-rule:evenodd;stroke:#000000;stroke-width:4.49480152;stroke-linecap:butt;stroke-linejoin:round;stroke-miterlimit:4;stroke-dasharray:none;stroke-opacity:1"
                 inkscape:connector-curvature="0" />
            </g>
            <g
               transform="translate(96.048932,-89.784868)"
               id="g7646">
              <path
                 style="opacity:1;fill:#a20000;fill-opacity:1;fill-rule:evenodd;stroke:#000000;stroke-width:4;stroke-linecap:butt;stroke-linejoin:round;stroke-miterlimit:4;stroke-dasharray:none;stroke-opacity:1"
                 d="m 15.60439,754.80043 c 6.381789,18.13832 -30.708228,-3.42177 -63.886591,8.25168 -8.294591,2.91836 -16.625016,4.52764 -24.124137,6.48684 -8.216817,2.14668 -11.024366,1.65494 -17.14064,8.85579 -5.654559,6.65725 -2.235773,13.34624 -14.008232,18.74372 -4.2066,1.92864 -1.57253,-27.2996 7.207774,-37.06789 8.780308,-9.76826 22.505621,-18.72843 39.094797,-24.56515 33.17835,-11.67345 66.4752411,1.15667 72.857029,19.29501 z"
                 id="path7602"
                 inkscape:connector-curvature="0" />
              <path
                 style="opacity:1;fill:#a20000;fill-opacity:1;fill-rule:evenodd;stroke:#000000;stroke-width:4;stroke-linecap:butt;stroke-linejoin:round;stroke-miterlimit:4;stroke-dasharray:none;stroke-opacity:1"
                 d="M 23.652656,769.93499 A 22.980151,22.968224 83.47098 0 1 -1.7794958,749.71538 22.980151,22.968224 83.47098 0 1 18.426907,724.27274"
                 id="path7604"
                 inkscape:connector-curvature="0" />
            </g>
            <g
               transform="matrix(0.65637115,-0.55010947,0.55035988,0.65607251,-239.54186,362.07324)"
               id="g7636">
              <path
                 style="opacity:1;fill:#a20000;fill-opacity:1;fill-rule:evenodd;stroke:#000000;stroke-width:4.67082834;stroke-linecap:butt;stroke-linejoin:round;stroke-miterlimit:4;stroke-dasharray:none;stroke-opacity:1"
                 d="m 35.496344,636.52539 c 1.5e-5,15.85827 -27.8318943,-11.06777 -63.003946,-11.06777 -8.793014,0 -17.185351,-1.02826 -24.909641,-1.55674 -8.46353,-0.57907 -10.94873,-1.73014 -19.10824,2.19785 -7.54355,3.63146 -6.5386,9.77123 -19.43515,10.74797 -4.60826,0.349 7.57723,-21.66922 19.10188,-26.86543 11.52465,-5.19619 27.4458,-8.41011 45.03182,-8.41011 35.1720377,0 62.323271,19.09594 62.323277,34.95423 z"
                 id="path7638"
                 inkscape:connector-curvature="0" />
              <path
                 style="opacity:1;fill:#a20000;fill-opacity:1;fill-rule:evenodd;stroke:#000000;stroke-width:4.67082834;stroke-linecap:butt;stroke-linejoin:round;stroke-miterlimit:4;stroke-dasharray:none;stroke-opacity:1"
                 d="M 43.848422,649.53467 A 22.968224,18.952602 0 0 1 20.880196,630.58206 22.968224,18.952602 0 0 1 43.848422,611.62946"
                 id="path7640"
                 inkscape:connector-curvature="0" />
            </g>
          </g>
          <g
             id="g7957">
            <g
               id="g7703"
               transform="matrix(-1,0,0,1,590.40773,-83.520808)">
              <path
                 id="path7705"
                 d="m 15.60439,754.80043 c 6.381789,18.13832 -30.708228,-3.42177 -63.886591,8.25168 -8.294591,2.91836 -16.625016,4.52764 -24.124137,6.48684 -8.216817,2.14668 -11.024366,1.65494 -17.14064,8.85579 -5.654559,6.65725 -2.235773,13.34624 -14.008232,18.74372 -4.2066,1.92864 -1.57253,-27.2996 7.207774,-37.06789 8.780308,-9.76826 22.505621,-18.72843 39.094797,-24.56515 33.17835,-11.67345 66.4752411,1.15667 72.857029,19.29501 z"
                 style="opacity:1;fill:#a20000;fill-opacity:1;fill-rule:evenodd;stroke:#000000;stroke-width:4;stroke-linecap:butt;stroke-linejoin:round;stroke-miterlimit:4;stroke-dasharray:none;stroke-opacity:1"
                 inkscape:connector-curvature="0" />
              <path
                 id="path7707"
                 d="M 23.652656,769.93499 A 22.980151,22.968224 83.47098 0 1 -1.7794958,749.71538 22.980151,22.968224 83.47098 0 1 18.426907,724.27274"
                 style="opacity:1;fill:#a20000;fill-opacity:1;fill-rule:evenodd;stroke:#000000;stroke-width:4;stroke-linecap:butt;stroke-linejoin:round;stroke-miterlimit:4;stroke-dasharray:none;stroke-opacity:1"
                 inkscape:connector-curvature="0" />
            </g>
            <g
               id="g7726">
              <path
                 id="path7699"
                 d="m 561.25957,609.94989 c -5.67554,14.80787 29.94945,-0.37391 62.79183,12.21383 8.2106,3.14694 16.41506,5.19032 23.81686,7.4613 8.11018,2.4883 10.84273,2.3029 17.05599,8.89092 5.74423,6.09069 2.60848,11.46413 14.30124,16.99172 4.17812,1.97514 0.67987,-22.94574 -8.22176,-31.92234 -8.90163,-8.97657 -22.61799,-17.67564 -39.03917,-23.96951 -32.84237,-12.58774 -65.02946,-4.47381 -70.70499,10.33408 z"
                 style="opacity:1;fill:#a20000;fill-opacity:1;fill-rule:evenodd;stroke:#000000;stroke-width:4;stroke-linecap:butt;stroke-linejoin:round;stroke-miterlimit:4;stroke-dasharray:none;stroke-opacity:1"
                 inkscape:connector-curvature="0" />
              <path
                 id="path7701"
                 d="M 553.6966,622.51709 A 22.968224,18.952602 5.84974 0 0 578.47687,606.00411 22.968224,18.952602 5.84974 0 0 557.5599,584.80927"
                 style="opacity:1;fill:#a20000;fill-opacity:1;fill-rule:evenodd;stroke:#000000;stroke-width:4;stroke-linecap:butt;stroke-linejoin:round;stroke-miterlimit:4;stroke-dasharray:none;stroke-opacity:1"
                 inkscape:connector-curvature="0" />
            </g>
            <g
               transform="matrix(-0.75102301,-0.40317857,-0.31117228,0.88744828,801.64497,174.71609)"
               id="g7693">
              <path
                 style="opacity:1;fill:#a20000;fill-opacity:1;fill-rule:evenodd;stroke:#000000;stroke-width:4.49480152;stroke-linecap:butt;stroke-linejoin:round;stroke-miterlimit:4;stroke-dasharray:none;stroke-opacity:1"
                 d="m 35.496344,636.52539 c 1.5e-5,15.85827 -27.8318943,-11.06777 -63.003946,-11.06777 -8.793014,0 -17.185351,-1.02826 -24.909641,-1.55674 -8.46353,-0.57907 -10.94873,-1.73014 -19.10824,2.19785 -7.54355,3.63146 -6.5386,9.77123 -19.43515,10.74797 -4.60826,0.349 7.57723,-21.66922 19.10188,-26.86543 11.52465,-5.19619 27.4458,-8.41011 45.03182,-8.41011 35.1720377,0 62.323271,19.09594 62.323277,34.95423 z"
                 id="path7695"
                 inkscape:connector-curvature="0" />
              <path
                 style="opacity:1;fill:#a20000;fill-opacity:1;fill-rule:evenodd;stroke:#000000;stroke-width:4.49480152;stroke-linecap:butt;stroke-linejoin:round;stroke-miterlimit:4;stroke-dasharray:none;stroke-opacity:1"
                 d="M 43.848422,649.53467 A 22.968224,18.952602 0 0 1 20.880196,630.58206 22.968224,18.952602 0 0 1 43.848422,611.62946"
                 id="path7697"
                 inkscape:connector-curvature="0" />
            </g>
            <g
               id="g7709"
               transform="matrix(-0.47490855,-0.71267481,-0.71283099,0.47455148,1024.4374,482.67676)">
              <path
                 id="path7711"
                 d="m 35.496344,636.52539 c 1.5e-5,15.85827 -27.8318943,-11.06777 -63.003946,-11.06777 -8.793014,0 -17.185351,-1.02826 -24.909641,-1.55674 -8.46353,-0.57907 -10.94873,-1.73014 -19.10824,2.19785 -7.54355,3.63146 -6.5386,9.77123 -19.43515,10.74797 -4.60826,0.349 7.57723,-21.66922 19.10188,-26.86543 11.52465,-5.19619 27.4458,-8.41011 45.03182,-8.41011 35.1720377,0 62.323271,19.09594 62.323277,34.95423 z"
                 style="opacity:1;fill:#a20000;fill-opacity:1;fill-rule:evenodd;stroke:#000000;stroke-width:4.67082834;stroke-linecap:butt;stroke-linejoin:round;stroke-miterlimit:4;stroke-dasharray:none;stroke-opacity:1"
                 inkscape:connector-curvature="0" />
              <path
                 id="path7713"
                 d="M 43.848422,649.53467 A 22.968224,18.952602 0 0 1 20.880196,630.58206 22.968224,18.952602 0 0 1 43.848422,611.62946"
                 style="opacity:1;fill:#a20000;fill-opacity:1;fill-rule:evenodd;stroke:#000000;stroke-width:4.67082834;stroke-linecap:butt;stroke-linejoin:round;stroke-miterlimit:4;stroke-dasharray:none;stroke-opacity:1"
                 inkscape:connector-curvature="0" />
            </g>
          </g>
        </g>
        <path
           inkscape:connector-curvature="0"
           id="path6971"
           d="m 153.40514,445.21274 63.95349,76.74419 17.44186,-18.60466 -69.20121,-63.67733 z"
           style="fill:#a20000;fill-opacity:1;stroke:#000000;stroke-width:3;stroke-linecap:butt;stroke-linejoin:miter;stroke-miterlimit:4;stroke-dasharray:none;stroke-opacity:1" />
        <path
           style="fill:#a20000;fill-opacity:1;stroke:#000000;stroke-width:3.40625119;stroke-linecap:butt;stroke-linejoin:miter;stroke-miterlimit:4;stroke-dasharray:none;stroke-opacity:1"
           d="m 617.98492,437.23073 -69.49157,91.05178 -18.95225,-22.07317 75.19372,-75.54883 z"
           id="path6973"
           inkscape:connector-curvature="0" />
        <path
           transform="matrix(0.91556816,0,0,0.91641111,57.798311,37.099278)"
           id="rect4136"
           d="m 211.42857,460.93365 c 80.06956,-33.1659 179.93043,-33.1659 259.99999,0 27.3756,11.33935 48.25791,37.07213 62.85714,62.85714 30.95542,54.67316 45.71429,182.85713 45.71429,182.85713 8.44578,33.78314 -29.79003,51.93937 -62.85714,62.85715 -117.14286,38.67711 -234.28571,29.64047 -351.42857,0 -33.75893,-8.54197 -71.302924,-29.07401 -62.85714,-62.85715 0,0 14.75887,-128.18397 45.71429,-182.85713 14.59923,-25.78501 35.48154,-51.51779 62.85714,-62.85714 z"
           style="opacity:1;fill:#a20000;fill-opacity:1;fill-rule:evenodd;stroke:#000000;stroke-width:4;stroke-linecap:butt;stroke-linejoin:round;stroke-miterlimit:4;stroke-dasharray:none;stroke-opacity:1;filter:url(#filter7886)"
           inkscape:connector-curvature="0" />
        <g
           transform="matrix(0.91556816,0,0,0.91641111,57.798311,-12.552815)"
           id="g6053">
          <path
             style="opacity:1;fill:none;fill-opacity:1;fill-rule:evenodd;stroke:#000000;stroke-width:6;stroke-linecap:butt;stroke-linejoin:round;stroke-miterlimit:4;stroke-dasharray:none;stroke-opacity:1"
             d="m 200.07211,656.42395 c 93.33286,40.1612 184.80978,48.58326 272.95335,0"
             id="path6047"
             inkscape:connector-curvature="0" />
          <path
             id="path6049"
             d="m 177.56694,668.08442 c 19.79862,-5.11762 35.29735,-15.10542 43.07323,-33.84034"
             style="opacity:1;fill:none;fill-opacity:1;fill-rule:evenodd;stroke:#000000;stroke-width:6;stroke-linecap:butt;stroke-linejoin:round;stroke-miterlimit:4;stroke-dasharray:none;stroke-opacity:1"
             inkscape:connector-curvature="0" />
          <path
             style="opacity:1;fill:none;fill-opacity:1;fill-rule:evenodd;stroke:#000000;stroke-width:6;stroke-linecap:butt;stroke-linejoin:round;stroke-miterlimit:4;stroke-dasharray:none;stroke-opacity:1"
             d="m 501.90088,670.16831 c -19.79862,-5.11762 -35.29735,-15.10542 -43.07323,-33.84034"
             id="path6051"
             inkscape:connector-curvature="0" />
        </g>
        <g
           style="filter:url(#filter7886)"
           transform="matrix(0.82222497,0,0,0.8233349,-459.76595,233.96024)"
           id="g6094">
          <g
             id="g6088"
             transform="matrix(0.82054994,-0.17974737,0.17964389,0.8210226,84.969153,116.28332)">
            <path
               inkscape:connector-curvature="0"
               id="path6082"
               d="m 696.87109,35.496094 c -31.03218,0 -11.53086,8.276745 -2.78125,31.626953 8.74961,23.350203 6.74805,61.773173 6.74805,103.576173 0,20.71789 -4.05936,41.45379 -9.21484,60.93164 -8.01222,-12.03923 -15.24478,-24.92601 -20.22461,-38.625 -12.9028,-35.49424 -26.58719,-67.45593 -25.81836,-90.18164 0.76882,-22.725712 15.99165,-36.215036 -12.29688,-25.931642 -56.57709,20.566793 -81.52239,94.786902 -55.71679,165.775392 25.8056,70.98849 92.58893,111.86366 149.16601,91.29687 5.68269,-2.06576 9.9046,-4.42811 12.91406,-7.06836 C 780.49323,304.22825 809.25,250.08025 809.25,186.87695 809.25,103.27096 758.93547,35.496094 696.87109,35.496094 Z"
               style="opacity:1;fill:#a20000;fill-opacity:1;fill-rule:evenodd;stroke:#000000;stroke-width:5.29993486;stroke-linecap:butt;stroke-linejoin:round;stroke-miterlimit:4;stroke-dasharray:none;stroke-opacity:1" />
            <path
               inkscape:connector-curvature="0"
               id="path6086"
               d="m 689.54569,228.00973 c 17.96363,39.77334 19.25475,31.96587 50.09306,46.86303"
               style="opacity:1;fill:none;fill-opacity:1;fill-rule:evenodd;stroke:#000000;stroke-width:5.29993486;stroke-linecap:butt;stroke-linejoin:round;stroke-miterlimit:4;stroke-dasharray:none;stroke-opacity:1" />
          </g>
          <ellipse
             style="opacity:1;fill:#a20000;fill-opacity:1;fill-rule:evenodd;stroke:#000000;stroke-width:4.45314598;stroke-linecap:butt;stroke-linejoin:round;stroke-miterlimit:4;stroke-dasharray:none;stroke-opacity:1"
             id="path6092"
             cx="545.93109"
             cy="574.349"
             rx="28.601063"
             ry="18.792183"
             transform="rotate(-27.86049)" />
        </g>
        <g
           style="filter:url(#filter7886)"
           transform="matrix(0.91556816,0,0,0.91641111,91.06546,11.562486)"
           id="g6116">
          <path
             inkscape:connector-curvature="0"
             id="path6104"
             d="m 710.43412,285.06115 c -16.14802,-16.94919 -17.45488,-5.80603 -23.17245,12.12811 -5.3991,16.9352 -31.07739,35.44276 -53.93939,57.20579 -11.33058,10.78593 -19.54971,22.58478 -32.88484,29.9093 2.41497,-10.64386 10.08261,-20.1637 10.5998,-31.15483 1.60272,-34.06041 16.43259,-51.51425 30.65163,-61.85607 13.88532,-10.09909 33.36104,-9.31438 13.01675,-19.41141 -40.68861,-20.19407 -94.26009,4.82096 -119.65529,55.87275 -25.39519,51.0518 -12.99814,108.80758 27.69046,129.00165 4.08683,2.02833 7.57572,3.10439 10.58568,3.37356 33.65239,10.50844 78.22982,-1.97511 112.7956,-34.87934 45.72398,-43.52605 56.60809,-106.29112 24.31205,-140.18951 z"
             style="opacity:1;fill:#a20000;fill-opacity:1;fill-rule:evenodd;stroke:#000000;stroke-width:4;stroke-linecap:butt;stroke-linejoin:round;stroke-miterlimit:4;stroke-dasharray:none;stroke-opacity:1" />
          <path
             inkscape:connector-curvature="0"
             id="path6106"
             d="m 601.33685,381.28454 c -7.85376,26.88623 -6.93743,23.39352 0.43729,51.75721"
             style="opacity:1;fill:none;fill-opacity:1;fill-rule:evenodd;stroke:#000000;stroke-width:4;stroke-linecap:butt;stroke-linejoin:round;stroke-miterlimit:4;stroke-dasharray:none;stroke-opacity:1" />
          <ellipse
             transform="matrix(0.85827058,0.51319744,-0.51350147,0.85808871,0,0)"
             ry="16.881956"
             rx="25.687559"
             cy="101.60969"
             cx="728.20673"
             id="ellipse6108"
             style="opacity:1;fill:#a20000;fill-opacity:1;fill-rule:evenodd;stroke:#000000;stroke-width:4.00000048;stroke-linecap:butt;stroke-linejoin:round;stroke-miterlimit:4;stroke-dasharray:none;stroke-opacity:1" />
        </g>
        <path
           style="fill:#ffffff;fill-opacity:1;fill-rule:nonzero;stroke:#000000;stroke-width:3.66395807"
           id="path3088"
           d="m 371.74377,427.35373 a 49.964291,50.079142 0 0 1 -99.92858,0 49.964291,50.079142 0 1 1 99.92858,0 z"
           inkscape:connector-curvature="0" />
        <path
           inkscape:connector-curvature="0"
           d="m 303.41924,409.98776 a 27.889071,27.441697 0 1 1 -55.77814,0 27.889071,27.441697 0 1 1 55.77814,0 z"
           id="path3041-5"
           style="fill:#000000;fill-opacity:1;fill-rule:nonzero;stroke:none"
           transform="matrix(1.0986818,0,0,1.0996933,14.60353,-31.93996)" />
        <path
           inkscape:connector-curvature="0"
           d="m 259.92487,406.27979 a 18.228487,18.048023 0 1 1 36.45697,0 18.228487,18.048023 0 0 1 -36.45697,0 z"
           id="path3043-6"
           style="fill:url(#radialGradient7028);fill-opacity:1;fill-rule:nonzero;stroke:#ffffff;stroke-width:0.83333331;stroke-opacity:1"
           transform="matrix(1.0986818,0,0,1.0996933,14.60353,-31.93996)" />
        <path
           d="m 472.50955,420.93116 a 52.554062,52.674739 0 0 1 -105.10812,0 52.554062,52.674739 0 1 1 105.10812,0 z"
           id="path7564"
           style="fill:#ffffff;fill-opacity:1;fill-rule:nonzero;stroke:#000000;stroke-width:3.66395807"
           inkscape:connector-curvature="0" />
        <path
           inkscape:connector-curvature="0"
           d="m 455.6999,415.46662 a 32.229425,31.741548 0 0 1 -64.45885,0 32.229425,31.741548 0 1 1 64.45885,0 z"
           id="path7566"
           style="fill:#000000;fill-opacity:1;fill-rule:nonzero;stroke:none" />
        <path
           inkscape:connector-curvature="0"
           d="m 406.17743,414.60574 a 21.065375,20.875978 0 1 1 42.13075,0 21.065375,20.875978 0 0 1 -42.13075,0 z"
           id="path7568"
           style="fill:url(#radialGradient7570);fill-opacity:1;fill-rule:nonzero;stroke:#ffffff;stroke-width:0.91598952;stroke-opacity:1" />
      </g>
    </g>
  </g>
</svg>
